<?xml version="1.0" ?><svg height="258px" version="1.1" viewBox="0 0 148 258" width="148px" xmlns="http://www.w3.org/2000/svg" xmlns:xlink="http://www.w3.org/1999/xlink"><title/><desc/><defs><linearGradient id="linearGradient-1" x1="50%" x2="50%" y1="0%" y2="100%"><stop offset="0%" stop-color="#4B958B"/><stop offset="100%" stop-color="#307B93"/></linearGradient><polygon id="path-2" points="63.1322034 250.578624 135.115089 190.670067 63.1322034 111.077966"/><polygon id="path-3" points="63.1322034 5.07249584 63.1322034 100.78 138.970879 63.491432"/><linearGradient id="linearGradient-4" x1="50%" x2="50%" y1="0%" y2="100%"><stop offset="0%" stop-color="#89BC9A"/><stop offset="100%" stop-color="#4A93AC"/></linearGradient><polygon id="path-5" points="57.5489259 8.6779661 8.02711864 64.2471742 18.2140106 185.348252 57.5489259 243.651123"/><linearGradient id="linearGradient-6" x1="50%" x2="50%" y1="0%" y2="100%"><stop offset="0%" stop-color="#C5DCD2"/><stop offset="100%" stop-color="#BAD3D7"/></linearGradient><polygon id="path-7" points="65.0847458 105.807575 138.956042 69.4237288 137.291862 183.108624"/></defs><g fill="none" fill-rule="evenodd" id="Classic" stroke="none" stroke-width="1"><g id="Kyber-Network" transform="translate(-2781.000000, -3278.000000)"><g transform="translate(2782.000000, 3279.000000)"><g id="Path-15"><use fill="url(#linearGradient-1)" fill-rule="evenodd" xlink:href="#path-2"/><path d="M62.1322034,252.711907 L62.1322034,108.481422 L136.555698,190.772126 L62.1322034,252.711907 Z" stroke="#FFFFFF" stroke-width="2"/></g><g id="Path-16"><use fill="#D8D8D8" fill-rule="evenodd" xlink:href="#path-3"/><path d="M62.1322034,3.03990279 L140.85412,63.6798144 L62.1322034,102.386022 L62.1322034,3.03990279 Z" stroke="#FFFFFF" stroke-width="2"/></g><g id="Path-17"><use fill="url(#linearGradient-4)" fill-rule="evenodd" xlink:href="#path-5"/><path d="M58.5489259,6.05280524 L58.5489259,246.921346 L17.2393625,185.691618 L6.9946119,63.9027215 L58.5489259,6.05280524 Z" stroke="#FFFFFF" stroke-width="2"/></g><g id="Path-18"><use fill="url(#linearGradient-6)" fill-rule="evenodd" xlink:href="#path-7"/><path d="M63.434372,105.50572 L139.979849,67.8047598 L138.255424,185.605109 L63.434372,105.50572 Z" stroke="#FFFFFF" stroke-width="2"/></g><circle cx="59.4440678" cy="4.1220339" fill="#414142" id="Oval-11" r="4.1220339" stroke="#FFFFFF" stroke-width="2"/><circle cx="4.1220339" cy="66.3864407" fill="#414142" id="Oval-11" r="4.1220339" stroke="#FFFFFF" stroke-width="2"/><circle cx="59.4440678" cy="106.738983" fill="#414142" id="Oval-11" r="4.1220339" stroke="#FFFFFF" stroke-width="2"/><circle cx="16.9220339" cy="189.179661" fill="#414142" id="Oval-11" r="4.1220339" stroke="#FFFFFF" stroke-width="2"/><circle cx="61.8305085" cy="251.877966" fill="#414142" id="Oval-11" r="4.1220339" stroke="#FFFFFF" stroke-width="2"/><circle cx="138.847458" cy="190.481356" fill="#414142" id="Oval-11" r="4.1220339" stroke="#FFFFFF" stroke-width="2"/><circle cx="141.884746" cy="64.4338983" fill="#414142" id="Oval-11" r="4.1220339" stroke="#FFFFFF" stroke-width="2"/></g></g></g></svg>